<svg version="1.1" xmlns="http://www.w3.org/2000/svg" xmlns:xlink="http://www.w3.org/1999/xlink" width="24" height="24" viewBox="0,0,256,256"><g fill="none" fill-rule="nonzero" stroke="none" stroke-width="1" stroke-linecap="butt" stroke-linejoin="miter" stroke-miterlimit="10" stroke-dasharray="" stroke-dashoffset="0" font-family="none" font-weight="none" font-size="none" text-anchor="none" style="mix-blend-mode: normal"><g transform="scale(10.66667,10.66667)"><path d="M0,0h24v24h-24z" fill="none"></path><path d="M8.243,7.34l-6.38,0.925l-0.113,0.023c-0.34826,0.09245 -0.61985,0.36511 -0.71094,0.71373c-0.09109,0.34862 0.01242,0.71928 0.27094,0.97027l4.622,4.499l-1.09,6.355l-0.013,0.11c-0.02132,0.36021 0.15307,0.70397 0.45634,0.89951c0.30326,0.19555 0.68835,0.21255 1.00766,0.04449l5.706,-3l5.693,3l0.1,0.046c0.33607,0.13237 0.71741,0.07323 0.99759,-0.15473c0.28018,-0.22796 0.41566,-0.5893 0.35441,-0.94527l-1.091,-6.355l4.624,-4.5l0.078,-0.085c0.22683,-0.27937 0.28606,-0.65908 0.15509,-0.99427c-0.13097,-0.33519 -0.43194,-0.57415 -0.78809,-0.62573l-6.38,-0.926l-2.852,-5.78c-0.16835,-0.34163 -0.51614,-0.55797 -0.897,-0.55797c-0.38086,0 -0.72865,0.21634 -0.897,0.55797z" fill="#ffffff"></path></g></g></svg>